<svg width="32" height="32" viewBox="0 0 32 32" fill="none" xmlns="http://www.w3.org/2000/svg">
<path d="M14.4375 28.4687C15.7609 28.4687 16.8437 27.3859 16.8437 26.0625H12.0312C12.0312 27.3859 13.1141 28.4687 14.4375 28.4687ZM21.6562 21.25V15.2343C21.6562 11.5408 19.6952 8.44872 16.2422 7.63059V6.81247C16.2422 5.81388 15.4361 5.00778 14.4375 5.00778C13.4389 5.00778 12.6328 5.81388 12.6328 6.81247V7.63059C9.19187 8.44872 7.21875 11.5287 7.21875 15.2343V21.25L4.8125 23.6562V24.8593H24.0625V23.6562L21.6562 21.25ZM19.25 22.4531H9.625V15.2343C9.625 12.2506 11.4417 9.82028 14.4375 9.82028C17.4333 9.82028 19.25 12.2506 19.25 15.2343V22.4531Z" fill="#4B4948"/>
<circle cx="23.4375" cy="10" r="8" fill="#EE7D42"/>
<path d="M19.1799 13.0631C20.167 13.0631 21.0846 12.2498 21.0846 10.2338C21.0846 8.54452 20.2921 7.75898 19.3119 7.75898C18.4777 7.75898 17.7826 8.41939 17.7826 9.4413C17.7826 10.5119 18.3596 11.0471 19.2146 11.0471C19.6248 11.0471 20.0836 10.7969 20.3825 10.4006L20.3408 9.81669C20.0419 10.2825 19.6804 10.4632 19.3606 10.4632C18.8253 10.4632 18.5264 10.0878 18.5264 9.4413C18.5264 8.76698 18.874 8.37073 19.3189 8.37073C19.9445 8.37073 20.3408 8.95468 20.3408 10.2338C20.3408 11.8605 19.7916 12.4027 19.1451 12.4027C18.8253 12.4027 18.5125 12.2498 18.3039 12.0204L17.8729 12.514C18.1649 12.8198 18.589 13.0631 19.1799 13.0631ZM23.1445 13.0631C24.1317 13.0631 25.0493 12.2498 25.0493 10.2338C25.0493 8.54452 24.2568 7.75898 23.2766 7.75898C22.4424 7.75898 21.7472 8.41939 21.7472 9.4413C21.7472 10.5119 22.3242 11.0471 23.1793 11.0471C23.5894 11.0471 24.0482 10.7969 24.3472 10.4006L24.3054 9.81669C24.0065 10.2825 23.645 10.4632 23.3253 10.4632C22.79 10.4632 22.491 10.0878 22.491 9.4413C22.491 8.76698 22.8386 8.37073 23.2835 8.37073C23.9092 8.37073 24.3054 8.95468 24.3054 10.2338C24.3054 11.8605 23.7563 12.4027 23.1098 12.4027C22.79 12.4027 22.4771 12.2498 22.2686 12.0204L21.8376 12.514C22.1296 12.8198 22.5536 13.0631 23.1445 13.0631ZM27.0883 12.1803H27.707V10.6787H29.1182V10.0948H27.707V8.59319H27.0883V10.0948H25.6841V10.6787H27.0883V12.1803Z" fill="white"/>
</svg>
