<svg width="317" height="199" viewBox="0 0 317 199" fill="none" xmlns="http://www.w3.org/2000/svg">
<rect width="317" height="199" rx="14" fill="white"/>
<path d="M97.5308 26.9202C98.9772 25.7915 101.006 25.7915 102.452 26.9202L105.844 29.5669C106.415 30.0124 107.096 30.2945 107.815 30.3832L112.085 30.9101C113.906 31.1348 115.34 32.5693 115.565 34.3901L116.092 38.66C116.18 39.3788 116.463 40.06 116.908 40.6309L119.555 44.0227C120.684 45.4691 120.684 47.4979 119.555 48.9442L116.908 52.3361C116.463 52.907 116.18 53.5882 116.092 54.3069L115.565 58.5768C115.34 60.3976 113.906 61.8322 112.085 62.0569L107.815 62.5837C107.096 62.6724 106.415 62.9546 105.844 63.4001L102.452 66.0468C101.006 67.1754 98.9772 67.1754 97.5308 66.0468L94.139 63.4001C93.568 62.9546 92.8868 62.6724 92.1681 62.5837L87.8982 62.0569C86.0774 61.8322 84.6429 60.3976 84.4182 58.5768L83.8913 54.3069C83.8026 53.5882 83.5204 52.907 83.0749 52.3361L80.4282 48.9442C79.2996 47.4979 79.2996 45.4691 80.4282 44.0227L83.0749 40.6309C83.5204 40.06 83.8026 39.3788 83.8913 38.66L84.4182 34.3901C84.6429 32.5693 86.0774 31.1348 87.8982 30.9101L92.1681 30.3832C92.8868 30.2945 93.568 30.0124 94.139 29.5669L97.5308 26.9202Z" fill="url(#paint0_linear_24_367)"/>
<path d="M156.038 26.9203C157.485 25.7917 159.513 25.7917 160.96 26.9203L164.352 29.567C164.923 30.0125 165.604 30.2947 166.323 30.3834L170.592 30.9102C172.413 31.1349 173.848 32.5695 174.072 34.3903L174.599 38.6601C174.688 39.3789 174.97 40.0601 175.416 40.631L178.062 44.0229C179.191 45.4692 179.191 47.498 178.062 48.9444L175.416 52.3362C174.97 52.9071 174.688 53.5883 174.599 54.3071L174.072 58.577C173.848 60.3978 172.413 61.8323 170.592 62.057L166.323 62.5839C165.604 62.6726 164.923 62.9547 164.352 63.4002L160.96 66.0469C159.513 67.1756 157.485 67.1756 156.038 66.0469L152.646 63.4002C152.076 62.9547 151.394 62.6726 150.676 62.5839L146.406 62.057C144.585 61.8323 143.15 60.3978 142.926 58.577L142.399 54.3071C142.31 53.5883 142.028 52.9071 141.582 52.3362L138.936 48.9444C137.807 47.498 137.807 45.4692 138.936 44.0229L141.582 40.631C142.028 40.0601 142.31 39.3789 142.399 38.6601L142.926 34.3903C143.15 32.5695 144.585 31.1349 146.406 30.9102L150.676 30.3834C151.394 30.2947 152.076 30.0125 152.646 29.567L156.038 26.9203Z" fill="url(#paint1_linear_24_367)"/>
<path d="M214.547 26.9202C215.994 25.7915 218.023 25.7915 219.469 26.9202L222.861 29.5669C223.432 30.0124 224.113 30.2945 224.832 30.3832L229.101 30.9101C230.922 31.1348 232.357 32.5693 232.582 34.3901L233.108 38.66C233.197 39.3788 233.479 40.06 233.925 40.6309L236.571 44.0227C237.7 45.4691 237.7 47.4979 236.571 48.9442L233.925 52.3361C233.479 52.907 233.197 53.5882 233.108 54.3069L232.582 58.5768C232.357 60.3976 230.922 61.8322 229.101 62.0569L224.832 62.5837C224.113 62.6724 223.432 62.9546 222.861 63.4001L219.469 66.0468C218.023 67.1754 215.994 67.1754 214.547 66.0468L211.156 63.4001C210.585 62.9546 209.903 62.6724 209.185 62.5837L204.915 62.0569C203.094 61.8322 201.659 60.3976 201.435 58.5768L200.908 54.3069C200.819 53.5882 200.537 52.907 200.092 52.3361L197.445 48.9442C196.316 47.4979 196.316 45.4691 197.445 44.0227L200.092 40.6309C200.537 40.06 200.819 39.3788 200.908 38.66L201.435 34.3901C201.659 32.5693 203.094 31.1348 204.915 30.9101L209.185 30.3832C209.903 30.2945 210.585 30.0124 211.156 29.5669L214.547 26.9202Z" fill="url(#paint2_linear_24_367)"/>
<path d="M273.055 26.9203C274.502 25.7917 276.531 25.7917 277.977 26.9203L281.369 29.567C281.94 30.0125 282.621 30.2947 283.34 30.3834L287.609 30.9102C289.43 31.1349 290.865 32.5695 291.09 34.3903L291.616 38.6601C291.705 39.3789 291.987 40.0601 292.433 40.631L295.079 44.0229C296.208 45.4692 296.208 47.498 295.079 48.9444L292.433 52.3362C291.987 52.9071 291.705 53.5883 291.616 54.3071L291.09 58.577C290.865 60.3978 289.43 61.8323 287.609 62.057L283.34 62.5839C282.621 62.6726 281.94 62.9547 281.369 63.4002L277.977 66.0469C276.531 67.1756 274.502 67.1756 273.055 66.0469L269.664 63.4002C269.093 62.9547 268.411 62.6726 267.693 62.5839L263.423 62.057C261.602 61.8323 260.167 60.3978 259.943 58.577L259.416 54.3071C259.327 53.5883 259.045 52.9071 258.6 52.3362L255.953 48.9444C254.824 47.498 254.824 45.4692 255.953 44.0229L258.6 40.631C259.045 40.0601 259.327 39.3789 259.416 38.6601L259.943 34.3903C260.167 32.5695 261.602 31.1349 263.423 30.9102L267.693 30.3834C268.411 30.2947 269.093 30.0125 269.664 29.567L273.055 26.9203Z" fill="url(#paint3_linear_24_367)"/>
<path d="M98.0227 134.92C99.4691 133.792 101.498 133.792 102.944 134.92L106.336 137.567C106.907 138.012 107.588 138.295 108.307 138.383L112.577 138.91C114.398 139.135 115.832 140.569 116.057 142.39L116.584 146.66C116.672 147.379 116.955 148.06 117.4 148.631L120.047 152.023C121.175 153.469 121.175 155.498 120.047 156.944L117.4 160.336C116.955 160.907 116.672 161.588 116.584 162.307L116.057 166.577C115.832 168.398 114.398 169.832 112.577 170.057L108.307 170.584C107.588 170.672 106.907 170.955 106.336 171.4L102.944 174.047C101.498 175.175 99.4691 175.175 98.0227 174.047L94.6309 171.4C94.06 170.955 93.3788 170.672 92.66 170.584L88.3901 170.057C86.5693 169.832 85.1348 168.398 84.9101 166.577L84.3832 162.307C84.2945 161.588 84.0124 160.907 83.5669 160.336L80.9202 156.944C79.7915 155.498 79.7915 153.469 80.9202 152.023L83.5669 148.631C84.0124 148.06 84.2945 147.379 84.3832 146.66L84.9101 142.39C85.1348 140.569 86.5693 139.135 88.3901 138.91L92.66 138.383C93.3788 138.295 94.06 138.012 94.6309 137.567L98.0227 134.92Z" fill="url(#paint4_linear_24_367)"/>
<path d="M94.0002 154.863L97.7995 158.063L106 150.063" stroke="white" stroke-width="2" stroke-linecap="round" stroke-linejoin="round"/>
<path d="M39.0225 80.8572C40.4689 79.7285 42.4976 79.7285 43.944 80.8572L47.3358 83.5039C47.9068 83.9494 48.588 84.2316 49.3067 84.3202L53.5766 84.8471C55.3974 85.0718 56.8319 86.5063 57.0566 88.3272L57.5835 92.597C57.6722 93.3158 57.9543 93.997 58.3999 94.5679L61.0466 97.9598C62.1752 99.4061 62.1752 101.435 61.0466 102.881L58.3999 106.273C57.9543 106.844 57.6722 107.525 57.5835 108.244L57.0566 112.514C56.8319 114.335 55.3974 115.769 53.5766 115.994L49.3067 116.521C48.588 116.609 47.9068 116.892 47.3358 117.337L43.944 119.984C42.4976 121.112 40.4689 121.112 39.0225 119.984L35.6307 117.337C35.0597 116.892 34.3785 116.609 33.6598 116.521L29.3899 115.994C27.5691 115.769 26.1346 114.335 25.9099 112.514L25.383 108.244C25.2943 107.525 25.0121 106.844 24.5666 106.273L21.9199 102.881C20.7913 101.435 20.7913 99.4061 21.9199 97.9598L24.5666 94.5679C25.0121 93.997 25.2943 93.3158 25.383 92.597L25.9099 88.3272C26.1346 86.5063 27.5691 85.0718 29.3899 84.8471L33.6598 84.3202C34.3785 84.2316 35.0597 83.9494 35.6307 83.5039L39.0225 80.8572Z" fill="url(#paint5_linear_24_367)"/>
<path d="M97.5308 80.8572C98.9772 79.7285 101.006 79.7285 102.452 80.8572L105.844 83.5039C106.415 83.9494 107.096 84.2316 107.815 84.3202L112.085 84.8471C113.906 85.0718 115.34 86.5063 115.565 88.3272L116.092 92.597C116.18 93.3158 116.463 93.997 116.908 94.5679L119.555 97.9598C120.684 99.4061 120.684 101.435 119.555 102.881L116.908 106.273C116.463 106.844 116.18 107.525 116.092 108.244L115.565 112.514C115.34 114.335 113.906 115.769 112.085 115.994L107.815 116.521C107.096 116.609 106.415 116.892 105.844 117.337L102.452 119.984C101.006 121.112 98.9772 121.112 97.5308 119.984L94.139 117.337C93.568 116.892 92.8868 116.609 92.1681 116.521L87.8982 115.994C86.0774 115.769 84.6429 114.335 84.4182 112.514L83.8913 108.244C83.8026 107.525 83.5204 106.844 83.0749 106.273L80.4282 102.881C79.2996 101.435 79.2996 99.4061 80.4282 97.9598L83.0749 94.5679C83.5204 93.997 83.8026 93.3158 83.8913 92.597L84.4182 88.3272C84.6429 86.5063 86.0774 85.0718 87.8982 84.8471L92.1681 84.3202C92.8868 84.2316 93.568 83.9494 94.139 83.5039L97.5308 80.8572Z" fill="url(#paint6_linear_24_367)"/>
<path d="M156.039 80.8572C157.486 79.7285 159.514 79.7285 160.961 80.8572L164.353 83.5039C164.924 83.9494 165.605 84.2316 166.324 84.3202L170.593 84.8471C172.414 85.0718 173.849 86.5063 174.073 88.3272L174.6 92.597C174.689 93.3158 174.971 93.997 175.417 94.5679L178.063 97.9598C179.192 99.4061 179.192 101.435 178.063 102.881L175.417 106.273C174.971 106.844 174.689 107.525 174.6 108.244L174.073 112.514C173.849 114.335 172.414 115.769 170.593 115.994L166.324 116.521C165.605 116.609 164.924 116.892 164.353 117.337L160.961 119.984C159.514 121.112 157.486 121.112 156.039 119.984L152.648 117.337C152.077 116.892 151.395 116.609 150.677 116.521L146.407 115.994C144.586 115.769 143.151 114.335 142.927 112.514L142.4 108.244C142.311 107.525 142.029 106.844 141.583 106.273L138.937 102.881C137.808 101.435 137.808 99.4061 138.937 97.9598L141.583 94.5679C142.029 93.997 142.311 93.3158 142.4 92.597L142.927 88.3272C143.151 86.5063 144.586 85.0718 146.407 84.8471L150.677 84.3202C151.395 84.2316 152.077 83.9494 152.648 83.5039L156.039 80.8572Z" fill="url(#paint7_linear_24_367)"/>
<path d="M214.547 80.8572C215.993 79.7285 218.022 79.7285 219.468 80.8572L222.86 83.5039C223.431 83.9494 224.112 84.2316 224.831 84.3202L229.101 84.8471C230.922 85.0718 232.356 86.5063 232.581 88.3272L233.108 92.597C233.196 93.3158 233.478 93.997 233.924 94.5679L236.571 97.9598C237.699 99.4061 237.699 101.435 236.571 102.881L233.924 106.273C233.478 106.844 233.196 107.525 233.108 108.244L232.581 112.514C232.356 114.335 230.922 115.769 229.101 115.994L224.831 116.521C224.112 116.609 223.431 116.892 222.86 117.337L219.468 119.984C218.022 121.112 215.993 121.112 214.547 119.984L211.155 117.337C210.584 116.892 209.903 116.609 209.184 116.521L204.914 115.994C203.093 115.769 201.659 114.335 201.434 112.514L200.907 108.244C200.818 107.525 200.536 106.844 200.091 106.273L197.444 102.881C196.315 101.435 196.315 99.4061 197.444 97.9598L200.091 94.5679C200.536 93.997 200.818 93.3158 200.907 92.597L201.434 88.3272C201.659 86.5063 203.093 85.0718 204.914 84.8471L209.184 84.3202C209.903 84.2316 210.584 83.9494 211.155 83.5039L214.547 80.8572Z" fill="url(#paint8_linear_24_367)"/>
<path d="M273.056 80.8572C274.502 79.7285 276.531 79.7285 277.977 80.8572L281.369 83.5039C281.94 83.9494 282.621 84.2316 283.34 84.3202L287.61 84.8471C289.431 85.0718 290.865 86.5063 291.09 88.3272L291.617 92.597C291.705 93.3158 291.988 93.997 292.433 94.5679L295.08 97.9598C296.208 99.4061 296.208 101.435 295.08 102.881L292.433 106.273C291.988 106.844 291.705 107.525 291.617 108.244L291.09 112.514C290.865 114.335 289.431 115.769 287.61 115.994L283.34 116.521C282.621 116.609 281.94 116.892 281.369 117.337L277.977 119.984C276.531 121.112 274.502 121.112 273.056 119.984L269.664 117.337C269.093 116.892 268.412 116.609 267.693 116.521L263.423 115.994C261.602 115.769 260.168 114.335 259.943 112.514L259.416 108.244C259.328 107.525 259.045 106.844 258.6 106.273L255.953 102.881C254.824 101.435 254.824 99.4061 255.953 97.9598L258.6 94.5679C259.045 93.997 259.328 93.3158 259.416 92.597L259.943 88.3272C260.168 86.5063 261.602 85.0718 263.423 84.8471L267.693 84.3202C268.412 84.2316 269.093 83.9494 269.664 83.5039L273.056 80.8572Z" fill="url(#paint9_linear_24_367)"/>
<path d="M39.0225 26.9202C40.4689 25.7915 42.4976 25.7915 43.944 26.9202L47.3358 29.5669C47.9068 30.0124 48.588 30.2945 49.3067 30.3832L53.5766 30.9101C55.3974 31.1348 56.8319 32.5693 57.0566 34.3901L57.5835 38.66C57.6722 39.3788 57.9543 40.06 58.3999 40.6309L61.0466 44.0227C62.1752 45.4691 62.1752 47.4979 61.0466 48.9442L58.3999 52.3361C57.9543 52.907 57.6722 53.5882 57.5835 54.3069L57.0566 58.5768C56.8319 60.3976 55.3974 61.8322 53.5766 62.0569L49.3067 62.5837C48.588 62.6724 47.9068 62.9546 47.3358 63.4001L43.944 66.0468C42.4976 67.1754 40.4689 67.1754 39.0225 66.0468L35.6307 63.4001C35.0597 62.9546 34.3785 62.6724 33.6598 62.5837L29.3899 62.0569C27.5691 61.8322 26.1346 60.3976 25.9099 58.5768L25.383 54.3069C25.2943 53.5882 25.0121 52.907 24.5666 52.3361L21.9199 48.9442C20.7913 47.4979 20.7913 45.4691 21.9199 44.0227L24.5666 40.6309C25.0121 40.06 25.2943 39.3788 25.383 38.66L25.9099 34.3901C26.1346 32.5693 27.5691 31.1348 29.3899 30.9101L33.6598 30.3832C34.3785 30.2945 35.0597 30.0124 35.6307 29.5669L39.0225 26.9202Z" fill="url(#paint10_linear_24_367)"/>
<path d="M35 47.8L38.7993 51L47 43" stroke="white" stroke-width="2" stroke-linecap="round" stroke-linejoin="round"/>
<path d="M35 100.8L38.7993 104L47 96" stroke="white" stroke-width="2" stroke-linecap="round" stroke-linejoin="round"/>
<path d="M39.0225 134.92C40.4689 133.792 42.4976 133.792 43.944 134.92L47.3358 137.567C47.9068 138.012 48.588 138.295 49.3067 138.383L53.5766 138.91C55.3974 139.135 56.8319 140.569 57.0566 142.39L57.5835 146.66C57.6722 147.379 57.9543 148.06 58.3999 148.631L61.0466 152.023C62.1752 153.469 62.1752 155.498 61.0466 156.944L58.3999 160.336C57.9543 160.907 57.6722 161.588 57.5835 162.307L57.0566 166.577C56.8319 168.398 55.3974 169.832 53.5766 170.057L49.3067 170.584C48.588 170.672 47.9068 170.955 47.3358 171.4L43.944 174.047C42.4976 175.175 40.4689 175.175 39.0225 174.047L35.6307 171.4C35.0597 170.955 34.3785 170.672 33.6598 170.584L29.3899 170.057C27.5691 169.832 26.1346 168.398 25.9099 166.577L25.383 162.307C25.2943 161.588 25.0121 160.907 24.5666 160.336L21.9199 156.944C20.7913 155.498 20.7913 153.469 21.9199 152.023L24.5666 148.631C25.0121 148.06 25.2943 147.379 25.383 146.66L25.9099 142.39C26.1346 140.569 27.5691 139.135 29.3899 138.91L33.6598 138.383C34.3785 138.295 35.0597 138.012 35.6307 137.567L39.0225 134.92Z" fill="url(#paint11_linear_24_367)"/>
<path d="M35 154.863L38.7993 158.063L47 150.063" stroke="white" stroke-width="2" stroke-linecap="round" stroke-linejoin="round"/>
<path d="M94 47.8L97.7993 51L106 43" stroke="white" stroke-width="2" stroke-linecap="round" stroke-linejoin="round"/>
<path d="M94 100.8L97.7993 104L106 96" stroke="white" stroke-width="2" stroke-linecap="round" stroke-linejoin="round"/>
<g clip-path="url(#clip0_24_367)">
<path d="M153 47.8L156.799 51L165 43" stroke="white" stroke-width="2" stroke-linecap="round" stroke-linejoin="round"/>
</g>
<g clip-path="url(#clip1_24_367)">
<path d="M153 100.8L156.799 104L165 96" stroke="white" stroke-width="2" stroke-linecap="round" stroke-linejoin="round"/>
</g>
<g clip-path="url(#clip2_24_367)">
<path d="M211 47.8L214.799 51L223 43" stroke="white" stroke-width="2" stroke-linecap="round" stroke-linejoin="round"/>
</g>
<g clip-path="url(#clip3_24_367)">
<path d="M211 100.8L214.799 104L223 96" stroke="white" stroke-width="2" stroke-linecap="round" stroke-linejoin="round"/>
</g>
<g clip-path="url(#clip4_24_367)">
<path d="M270 47.8L273.799 51L282 43" stroke="white" stroke-width="2" stroke-linecap="round" stroke-linejoin="round"/>
</g>
<g clip-path="url(#clip5_24_367)">
<g clip-path="url(#clip6_24_367)">
<path d="M270 100.8L273.799 104L282 96" stroke="white" stroke-width="2" stroke-linecap="round" stroke-linejoin="round"/>
</g>
</g>
<path d="M274.023 134.92C275.469 133.792 277.498 133.792 278.944 134.92L282.336 137.567C282.907 138.012 283.588 138.295 284.307 138.383L288.577 138.91C290.398 139.135 291.832 140.569 292.057 142.39L292.584 146.66C292.672 147.379 292.955 148.06 293.4 148.631L296.047 152.023C297.175 153.469 297.175 155.498 296.047 156.944L293.4 160.336C292.955 160.907 292.672 161.588 292.584 162.307L292.057 166.577C291.832 168.398 290.398 169.832 288.577 170.057L284.307 170.584C283.588 170.672 282.907 170.955 282.336 171.4L278.944 174.047C277.498 175.175 275.469 175.175 274.023 174.047L270.631 171.4C270.06 170.955 269.379 170.672 268.66 170.584L264.39 170.057C262.569 169.832 261.135 168.398 260.91 166.577L260.383 162.307C260.295 161.588 260.012 160.907 259.567 160.336L256.92 156.944C255.792 155.498 255.792 153.469 256.92 152.023L259.567 148.631C260.012 148.06 260.295 147.379 260.383 146.66L260.91 142.39C261.135 140.569 262.569 139.135 264.39 138.91L268.66 138.383C269.379 138.295 270.06 138.012 270.631 137.567L274.023 134.92Z" fill="url(#paint12_linear_24_367)"/>
<path d="M270 154.863L273.8 158.063L282 150.063" stroke="white" stroke-width="2" stroke-linecap="round" stroke-linejoin="round"/>
<path d="M157.023 134.92C158.469 133.792 160.498 133.792 161.944 134.92L165.336 137.567C165.907 138.012 166.588 138.295 167.307 138.383L171.577 138.91C173.398 139.135 174.832 140.569 175.057 142.39L175.584 146.66C175.672 147.379 175.955 148.06 176.4 148.631L179.047 152.023C180.175 153.469 180.175 155.498 179.047 156.944L176.4 160.336C175.955 160.907 175.672 161.588 175.584 162.307L175.057 166.577C174.832 168.398 173.398 169.832 171.577 170.057L167.307 170.584C166.588 170.672 165.907 170.955 165.336 171.4L161.944 174.047C160.498 175.175 158.469 175.175 157.023 174.047L153.631 171.4C153.06 170.955 152.379 170.672 151.66 170.584L147.39 170.057C145.569 169.832 144.135 168.398 143.91 166.577L143.383 162.307C143.295 161.588 143.012 160.907 142.567 160.336L139.92 156.944C138.792 155.498 138.792 153.469 139.92 152.023L142.567 148.631C143.012 148.06 143.295 147.379 143.383 146.66L143.91 142.39C144.135 140.569 145.569 139.135 147.39 138.91L151.66 138.383C152.379 138.295 153.06 138.012 153.631 137.567L157.023 134.92Z" fill="url(#paint13_linear_24_367)"/>
<path d="M153 154.863L156.8 158.063L165 150.063" stroke="white" stroke-width="2" stroke-linecap="round" stroke-linejoin="round"/>
<path d="M215.023 134.92C216.469 133.792 218.498 133.792 219.944 134.92L223.336 137.567C223.907 138.012 224.588 138.295 225.307 138.383L229.577 138.91C231.398 139.135 232.832 140.569 233.057 142.39L233.584 146.66C233.672 147.379 233.955 148.06 234.4 148.631L237.047 152.023C238.175 153.469 238.175 155.498 237.047 156.944L234.4 160.336C233.955 160.907 233.672 161.588 233.584 162.307L233.057 166.577C232.832 168.398 231.398 169.832 229.577 170.057L225.307 170.584C224.588 170.672 223.907 170.955 223.336 171.4L219.944 174.047C218.498 175.175 216.469 175.175 215.023 174.047L211.631 171.4C211.06 170.955 210.379 170.672 209.66 170.584L205.39 170.057C203.569 169.832 202.135 168.398 201.91 166.577L201.383 162.307C201.295 161.588 201.012 160.907 200.567 160.336L197.92 156.944C196.792 155.498 196.792 153.469 197.92 152.023L200.567 148.631C201.012 148.06 201.295 147.379 201.383 146.66L201.91 142.39C202.135 140.569 203.569 139.135 205.39 138.91L209.66 138.383C210.379 138.295 211.06 138.012 211.631 137.567L215.023 134.92Z" fill="url(#paint14_linear_24_367)"/>
<path d="M211 154.863L214.8 158.063L223 150.063" stroke="white" stroke-width="2" stroke-linecap="round" stroke-linejoin="round"/>
<defs>
<linearGradient id="paint0_linear_24_367" x1="97.508" y1="91" x2="152.008" y2="59.5" gradientUnits="userSpaceOnUse">
<stop stop-color="#FAA677"/>
<stop offset="1" stop-color="#FAA677" stop-opacity="0.47"/>
</linearGradient>
<linearGradient id="paint1_linear_24_367" x1="156.016" y1="91.0001" x2="210.516" y2="59.5001" gradientUnits="userSpaceOnUse">
<stop stop-color="#FAA677"/>
<stop offset="1" stop-color="#FAA677" stop-opacity="0.47"/>
</linearGradient>
<linearGradient id="paint2_linear_24_367" x1="214.525" y1="91" x2="269.025" y2="59.5" gradientUnits="userSpaceOnUse">
<stop stop-color="#FAA677"/>
<stop offset="1" stop-color="#FAA677" stop-opacity="0.47"/>
</linearGradient>
<linearGradient id="paint3_linear_24_367" x1="273.033" y1="91.0001" x2="327.533" y2="59.5001" gradientUnits="userSpaceOnUse">
<stop stop-color="#FAA677"/>
<stop offset="1" stop-color="#FAA677" stop-opacity="0.47"/>
</linearGradient>
<linearGradient id="paint4_linear_24_367" x1="98" y1="199" x2="152.5" y2="167.5" gradientUnits="userSpaceOnUse">
<stop stop-color="#FAA677"/>
<stop offset="1" stop-color="#FAA677" stop-opacity="0.47"/>
</linearGradient>
<linearGradient id="paint5_linear_24_367" x1="38.9997" y1="144.937" x2="93.4997" y2="113.437" gradientUnits="userSpaceOnUse">
<stop stop-color="#FAA677"/>
<stop offset="1" stop-color="#FAA677" stop-opacity="0.47"/>
</linearGradient>
<linearGradient id="paint6_linear_24_367" x1="97.508" y1="144.937" x2="152.008" y2="113.437" gradientUnits="userSpaceOnUse">
<stop stop-color="#FAA677"/>
<stop offset="1" stop-color="#FAA677" stop-opacity="0.47"/>
</linearGradient>
<linearGradient id="paint7_linear_24_367" x1="156.017" y1="144.937" x2="210.517" y2="113.437" gradientUnits="userSpaceOnUse">
<stop stop-color="#FAA677"/>
<stop offset="1" stop-color="#FAA677" stop-opacity="0.47"/>
</linearGradient>
<linearGradient id="paint8_linear_24_367" x1="214.524" y1="144.937" x2="269.024" y2="113.437" gradientUnits="userSpaceOnUse">
<stop stop-color="#FAA677"/>
<stop offset="1" stop-color="#FAA677" stop-opacity="0.47"/>
</linearGradient>
<linearGradient id="paint9_linear_24_367" x1="273.033" y1="144.937" x2="327.533" y2="113.437" gradientUnits="userSpaceOnUse">
<stop stop-color="#FAA677"/>
<stop offset="1" stop-color="#FAA677" stop-opacity="0.47"/>
</linearGradient>
<linearGradient id="paint10_linear_24_367" x1="38.9997" y1="91" x2="93.4997" y2="59.5" gradientUnits="userSpaceOnUse">
<stop stop-color="#FAA677"/>
<stop offset="1" stop-color="#FAA677" stop-opacity="0.47"/>
</linearGradient>
<linearGradient id="paint11_linear_24_367" x1="38.9997" y1="199" x2="93.4997" y2="167.5" gradientUnits="userSpaceOnUse">
<stop stop-color="#FAA677"/>
<stop offset="1" stop-color="#FAA677" stop-opacity="0.47"/>
</linearGradient>
<linearGradient id="paint12_linear_24_367" x1="274" y1="199" x2="328.5" y2="167.5" gradientUnits="userSpaceOnUse">
<stop stop-color="#FAA677"/>
<stop offset="1" stop-color="#FAA677" stop-opacity="0.47"/>
</linearGradient>
<linearGradient id="paint13_linear_24_367" x1="157" y1="199" x2="211.5" y2="167.5" gradientUnits="userSpaceOnUse">
<stop stop-color="#FAA677"/>
<stop offset="1" stop-color="#FAA677" stop-opacity="0.47"/>
</linearGradient>
<linearGradient id="paint14_linear_24_367" x1="215" y1="199" x2="269.5" y2="167.5" gradientUnits="userSpaceOnUse">
<stop stop-color="#FAA677"/>
<stop offset="1" stop-color="#FAA677" stop-opacity="0.47"/>
</linearGradient>
<clipPath id="clip0_24_367">
<rect width="22" height="22" fill="white" transform="translate(148 37)"/>
</clipPath>
<clipPath id="clip1_24_367">
<rect width="22" height="22" fill="white" transform="translate(148 90)"/>
</clipPath>
<clipPath id="clip2_24_367">
<rect width="22" height="22" fill="white" transform="translate(206 37)"/>
</clipPath>
<clipPath id="clip3_24_367">
<rect width="22" height="22" fill="white" transform="translate(206 90)"/>
</clipPath>
<clipPath id="clip4_24_367">
<rect width="22" height="22" fill="white" transform="translate(265 37)"/>
</clipPath>
<clipPath id="clip5_24_367">
<rect width="22" height="22" fill="white" transform="translate(265 90)"/>
</clipPath>
<clipPath id="clip6_24_367">
<rect width="22" height="22" fill="white" transform="translate(265 90)"/>
</clipPath>
</defs>
</svg>
