<svg width="375" height="247" viewBox="0 0 375 247" fill="none" xmlns="http://www.w3.org/2000/svg">
<g filter="url(#filter0_d_22_170)">
<g filter="url(#filter1_d_22_170)">
<g filter="url(#filter2_d_22_170)">
<rect x="29" y="24" width="317" height="199" rx="14" fill="white"/>
</g>
<path d="M126.531 50.9202C127.977 49.7915 130.006 49.7915 131.452 50.9202L134.844 53.5669C135.415 54.0124 136.096 54.2945 136.815 54.3832L141.085 54.9101C142.906 55.1348 144.34 56.5693 144.565 58.3901L145.092 62.66C145.18 63.3788 145.463 64.06 145.908 64.6309L148.555 68.0227C149.684 69.4691 149.684 71.4979 148.555 72.9442L145.908 76.3361C145.463 76.907 145.18 77.5882 145.092 78.3069L144.565 82.5768C144.34 84.3976 142.906 85.8322 141.085 86.0569L136.815 86.5837C136.096 86.6724 135.415 86.9546 134.844 87.4001L131.452 90.0468C130.006 91.1754 127.977 91.1754 126.531 90.0468L123.139 87.4001C122.568 86.9546 121.887 86.6724 121.168 86.5837L116.898 86.0569C115.077 85.8322 113.643 84.3976 113.418 82.5768L112.891 78.3069C112.803 77.5882 112.52 76.907 112.075 76.3361L109.428 72.9442C108.3 71.4979 108.3 69.4691 109.428 68.0227L112.075 64.6309C112.52 64.06 112.803 63.3788 112.891 62.66L113.418 58.3901C113.643 56.5693 115.077 55.1348 116.898 54.9101L121.168 54.3832C121.887 54.2945 122.568 54.0124 123.139 53.5669L126.531 50.9202Z" fill="url(#paint0_linear_22_170)"/>
<path d="M185.038 50.9203C186.485 49.7917 188.513 49.7917 189.96 50.9203L193.352 53.567C193.923 54.0125 194.604 54.2947 195.323 54.3834L199.592 54.9102C201.413 55.1349 202.848 56.5695 203.072 58.3903L203.599 62.6601C203.688 63.3789 203.97 64.0601 204.416 64.631L207.062 68.0229C208.191 69.4692 208.191 71.498 207.062 72.9444L204.416 76.3362C203.97 76.9071 203.688 77.5883 203.599 78.3071L203.072 82.577C202.848 84.3978 201.413 85.8323 199.592 86.057L195.323 86.5839C194.604 86.6726 193.923 86.9547 193.352 87.4002L189.96 90.0469C188.513 91.1756 186.485 91.1756 185.038 90.0469L181.646 87.4002C181.076 86.9547 180.394 86.6726 179.676 86.5839L175.406 86.057C173.585 85.8323 172.15 84.3978 171.926 82.577L171.399 78.3071C171.31 77.5883 171.028 76.9071 170.582 76.3362L167.936 72.9444C166.807 71.498 166.807 69.4692 167.936 68.0229L170.582 64.631C171.028 64.0601 171.31 63.3789 171.399 62.6601L171.926 58.3903C172.15 56.5695 173.585 55.1349 175.406 54.9102L179.676 54.3834C180.394 54.2947 181.076 54.0125 181.646 53.567L185.038 50.9203Z" fill="url(#paint1_linear_22_170)"/>
<path d="M243.547 50.9202C244.994 49.7915 247.023 49.7915 248.469 50.9202L251.861 53.5669C252.432 54.0124 253.113 54.2945 253.832 54.3832L258.101 54.9101C259.922 55.1348 261.357 56.5693 261.582 58.3901L262.108 62.66C262.197 63.3788 262.479 64.06 262.925 64.6309L265.571 68.0227C266.7 69.4691 266.7 71.4979 265.571 72.9442L262.925 76.3361C262.479 76.907 262.197 77.5882 262.108 78.3069L261.582 82.5768C261.357 84.3976 259.922 85.8322 258.101 86.0569L253.832 86.5837C253.113 86.6724 252.432 86.9546 251.861 87.4001L248.469 90.0468C247.023 91.1754 244.994 91.1754 243.547 90.0468L240.156 87.4001C239.585 86.9546 238.903 86.6724 238.185 86.5837L233.915 86.0569C232.094 85.8322 230.659 84.3976 230.435 82.5768L229.908 78.3069C229.819 77.5882 229.537 76.907 229.092 76.3361L226.445 72.9442C225.316 71.4979 225.316 69.4691 226.445 68.0227L229.092 64.6309C229.537 64.06 229.819 63.3788 229.908 62.66L230.435 58.3901C230.659 56.5693 232.094 55.1348 233.915 54.9101L238.185 54.3832C238.903 54.2945 239.585 54.0124 240.156 53.5669L243.547 50.9202Z" fill="url(#paint2_linear_22_170)"/>
<path d="M302.055 50.9203C303.502 49.7917 305.531 49.7917 306.977 50.9203L310.369 53.567C310.94 54.0125 311.621 54.2947 312.34 54.3834L316.609 54.9102C318.43 55.1349 319.865 56.5695 320.09 58.3903L320.616 62.6601C320.705 63.3789 320.987 64.0601 321.433 64.631L324.079 68.0229C325.208 69.4692 325.208 71.498 324.079 72.9444L321.433 76.3362C320.987 76.9071 320.705 77.5883 320.616 78.3071L320.09 82.577C319.865 84.3978 318.43 85.8323 316.609 86.057L312.34 86.5839C311.621 86.6726 310.94 86.9547 310.369 87.4002L306.977 90.0469C305.531 91.1756 303.502 91.1756 302.055 90.0469L298.664 87.4002C298.093 86.9547 297.411 86.6726 296.693 86.5839L292.423 86.057C290.602 85.8323 289.167 84.3978 288.943 82.577L288.416 78.3071C288.327 77.5883 288.045 76.9071 287.6 76.3362L284.953 72.9444C283.824 71.498 283.824 69.4692 284.953 68.0229L287.6 64.631C288.045 64.0601 288.327 63.3789 288.416 62.6601L288.943 58.3903C289.167 56.5695 290.602 55.1349 292.423 54.9102L296.693 54.3834C297.411 54.2947 298.093 54.0125 298.664 53.567L302.055 50.9203Z" fill="url(#paint3_linear_22_170)"/>
<path d="M68.0225 104.857C69.4689 103.729 71.4976 103.729 72.944 104.857L76.3358 107.504C76.9068 107.949 77.588 108.232 78.3067 108.32L82.5766 108.847C84.3974 109.072 85.8319 110.506 86.0566 112.327L86.5835 116.597C86.6722 117.316 86.9543 117.997 87.3999 118.568L90.0466 121.96C91.1752 123.406 91.1752 125.435 90.0466 126.881L87.3999 130.273C86.9543 130.844 86.6722 131.525 86.5835 132.244L86.0566 136.514C85.8319 138.335 84.3974 139.769 82.5766 139.994L78.3067 140.521C77.588 140.609 76.9068 140.892 76.3358 141.337L72.944 143.984C71.4976 145.112 69.4689 145.112 68.0225 143.984L64.6307 141.337C64.0597 140.892 63.3785 140.609 62.6598 140.521L58.3899 139.994C56.5691 139.769 55.1346 138.335 54.9099 136.514L54.383 132.244C54.2943 131.525 54.0121 130.844 53.5666 130.273L50.9199 126.881C49.7913 125.435 49.7913 123.406 50.9199 121.96L53.5666 118.568C54.0121 117.997 54.2943 117.316 54.383 116.597L54.9099 112.327C55.1346 110.506 56.5691 109.072 58.3899 108.847L62.6598 108.32C63.3785 108.232 64.0597 107.949 64.6307 107.504L68.0225 104.857Z" fill="url(#paint4_linear_22_170)"/>
<path d="M126.531 104.857C127.977 103.729 130.006 103.729 131.452 104.857L134.844 107.504C135.415 107.949 136.096 108.232 136.815 108.32L141.085 108.847C142.906 109.072 144.34 110.506 144.565 112.327L145.092 116.597C145.18 117.316 145.463 117.997 145.908 118.568L148.555 121.96C149.684 123.406 149.684 125.435 148.555 126.881L145.908 130.273C145.463 130.844 145.18 131.525 145.092 132.244L144.565 136.514C144.34 138.335 142.906 139.769 141.085 139.994L136.815 140.521C136.096 140.609 135.415 140.892 134.844 141.337L131.452 143.984C130.006 145.112 127.977 145.112 126.531 143.984L123.139 141.337C122.568 140.892 121.887 140.609 121.168 140.521L116.898 139.994C115.077 139.769 113.643 138.335 113.418 136.514L112.891 132.244C112.803 131.525 112.52 130.844 112.075 130.273L109.428 126.881C108.3 125.435 108.3 123.406 109.428 121.96L112.075 118.568C112.52 117.997 112.803 117.316 112.891 116.597L113.418 112.327C113.643 110.506 115.077 109.072 116.898 108.847L121.168 108.32C121.887 108.232 122.568 107.949 123.139 107.504L126.531 104.857Z" fill="url(#paint5_linear_22_170)"/>
<path d="M185.039 104.857C186.486 103.729 188.514 103.729 189.961 104.857L193.353 107.504C193.924 107.949 194.605 108.232 195.324 108.32L199.593 108.847C201.414 109.072 202.849 110.506 203.073 112.327L203.6 116.597C203.689 117.316 203.971 117.997 204.417 118.568L207.063 121.96C208.192 123.406 208.192 125.435 207.063 126.881L204.417 130.273C203.971 130.844 203.689 131.525 203.6 132.244L203.073 136.514C202.849 138.335 201.414 139.769 199.593 139.994L195.324 140.521C194.605 140.609 193.924 140.892 193.353 141.337L189.961 143.984C188.514 145.112 186.486 145.112 185.039 143.984L181.648 141.337C181.077 140.892 180.395 140.609 179.677 140.521L175.407 139.994C173.586 139.769 172.151 138.335 171.927 136.514L171.4 132.244C171.311 131.525 171.029 130.844 170.583 130.273L167.937 126.881C166.808 125.435 166.808 123.406 167.937 121.96L170.583 118.568C171.029 117.997 171.311 117.316 171.4 116.597L171.927 112.327C172.151 110.506 173.586 109.072 175.407 108.847L179.677 108.32C180.395 108.232 181.077 107.949 181.648 107.504L185.039 104.857Z" fill="url(#paint6_linear_22_170)"/>
<path d="M243.547 104.857C244.993 103.729 247.022 103.729 248.468 104.857L251.86 107.504C252.431 107.949 253.112 108.232 253.831 108.32L258.101 108.847C259.922 109.072 261.356 110.506 261.581 112.327L262.108 116.597C262.196 117.316 262.478 117.997 262.924 118.568L265.571 121.96C266.699 123.406 266.699 125.435 265.571 126.881L262.924 130.273C262.478 130.844 262.196 131.525 262.108 132.244L261.581 136.514C261.356 138.335 259.922 139.769 258.101 139.994L253.831 140.521C253.112 140.609 252.431 140.892 251.86 141.337L248.468 143.984C247.022 145.112 244.993 145.112 243.547 143.984L240.155 141.337C239.584 140.892 238.903 140.609 238.184 140.521L233.914 139.994C232.093 139.769 230.659 138.335 230.434 136.514L229.907 132.244C229.818 131.525 229.536 130.844 229.091 130.273L226.444 126.881C225.315 125.435 225.315 123.406 226.444 121.96L229.091 118.568C229.536 117.997 229.818 117.316 229.907 116.597L230.434 112.327C230.659 110.506 232.093 109.072 233.914 108.847L238.184 108.32C238.903 108.232 239.584 107.949 240.155 107.504L243.547 104.857Z" fill="url(#paint7_linear_22_170)"/>
<path d="M302.056 104.857C303.502 103.729 305.531 103.729 306.977 104.857L310.369 107.504C310.94 107.949 311.621 108.232 312.34 108.32L316.61 108.847C318.431 109.072 319.865 110.506 320.09 112.327L320.617 116.597C320.705 117.316 320.988 117.997 321.433 118.568L324.08 121.96C325.208 123.406 325.208 125.435 324.08 126.881L321.433 130.273C320.988 130.844 320.705 131.525 320.617 132.244L320.09 136.514C319.865 138.335 318.431 139.769 316.61 139.994L312.34 140.521C311.621 140.609 310.94 140.892 310.369 141.337L306.977 143.984C305.531 145.112 303.502 145.112 302.056 143.984L298.664 141.337C298.093 140.892 297.412 140.609 296.693 140.521L292.423 139.994C290.602 139.769 289.168 138.335 288.943 136.514L288.416 132.244C288.328 131.525 288.045 130.844 287.6 130.273L284.953 126.881C283.824 125.435 283.824 123.406 284.953 121.96L287.6 118.568C288.045 117.997 288.328 117.316 288.416 116.597L288.943 112.327C289.168 110.506 290.602 109.072 292.423 108.847L296.693 108.32C297.412 108.232 298.093 107.949 298.664 107.504L302.056 104.857Z" fill="url(#paint8_linear_22_170)"/>
<path d="M68.0225 50.9202C69.4689 49.7915 71.4976 49.7915 72.944 50.9202L76.3358 53.5669C76.9068 54.0124 77.588 54.2945 78.3067 54.3832L82.5766 54.9101C84.3974 55.1348 85.8319 56.5693 86.0566 58.3901L86.5835 62.66C86.6722 63.3788 86.9543 64.06 87.3999 64.6309L90.0466 68.0227C91.1752 69.4691 91.1752 71.4979 90.0466 72.9442L87.3999 76.3361C86.9543 76.907 86.6722 77.5882 86.5835 78.3069L86.0566 82.5768C85.8319 84.3976 84.3974 85.8322 82.5766 86.0569L78.3067 86.5837C77.588 86.6724 76.9068 86.9546 76.3358 87.4001L72.944 90.0468C71.4976 91.1754 69.4689 91.1754 68.0225 90.0468L64.6307 87.4001C64.0597 86.9546 63.3785 86.6724 62.6598 86.5837L58.3899 86.0569C56.5691 85.8322 55.1346 84.3976 54.9099 82.5768L54.383 78.3069C54.2943 77.5882 54.0121 76.907 53.5666 76.3361L50.9199 72.9442C49.7913 71.4979 49.7913 69.4691 50.9199 68.0227L53.5666 64.6309C54.0121 64.06 54.2943 63.3788 54.383 62.66L54.9099 58.3901C55.1346 56.5693 56.5691 55.1348 58.3899 54.9101L62.6598 54.3832C63.3785 54.2945 64.0597 54.0124 64.6307 53.5669L68.0225 50.9202Z" fill="url(#paint9_linear_22_170)"/>
<path d="M64 71.8L67.7993 75L76 67" stroke="white" stroke-width="2" stroke-linecap="round" stroke-linejoin="round"/>
<path d="M64 124.8L67.7993 128L76 120" stroke="white" stroke-width="2" stroke-linecap="round" stroke-linejoin="round"/>
<path d="M68.0225 158.92C69.4689 157.792 71.4976 157.792 72.944 158.92L76.3358 161.567C76.9068 162.012 77.588 162.295 78.3067 162.383L82.5766 162.91C84.3974 163.135 85.8319 164.569 86.0566 166.39L86.5835 170.66C86.6722 171.379 86.9543 172.06 87.3999 172.631L90.0466 176.023C91.1752 177.469 91.1752 179.498 90.0466 180.944L87.3999 184.336C86.9543 184.907 86.6722 185.588 86.5835 186.307L86.0566 190.577C85.8319 192.398 84.3974 193.832 82.5766 194.057L78.3067 194.584C77.588 194.672 76.9068 194.955 76.3358 195.4L72.944 198.047C71.4976 199.175 69.4689 199.175 68.0225 198.047L64.6307 195.4C64.0597 194.955 63.3785 194.672 62.6598 194.584L58.3899 194.057C56.5691 193.832 55.1346 192.398 54.9099 190.577L54.383 186.307C54.2943 185.588 54.0121 184.907 53.5666 184.336L50.9199 180.944C49.7913 179.498 49.7913 177.469 50.9199 176.023L53.5666 172.631C54.0121 172.06 54.2943 171.379 54.383 170.66L54.9099 166.39C55.1346 164.569 56.5691 163.135 58.3899 162.91L62.6598 162.383C63.3785 162.295 64.0597 162.012 64.6307 161.567L68.0225 158.92Z" fill="url(#paint10_linear_22_170)"/>
<path d="M64 178.863L67.7993 182.063L76 174.063" stroke="white" stroke-width="2" stroke-linecap="round" stroke-linejoin="round"/>
<path d="M123 71.8L126.799 75L135 67" stroke="white" stroke-width="2" stroke-linecap="round" stroke-linejoin="round"/>
<path d="M123 124.8L126.799 128L135 120" stroke="white" stroke-width="2" stroke-linecap="round" stroke-linejoin="round"/>
<g clip-path="url(#clip0_22_170)">
<path d="M182 71.8L185.799 75L194 67" stroke="white" stroke-width="2" stroke-linecap="round" stroke-linejoin="round"/>
</g>
<g clip-path="url(#clip1_22_170)">
<path d="M182 124.8L185.799 128L194 120" stroke="white" stroke-width="2" stroke-linecap="round" stroke-linejoin="round"/>
</g>
<g clip-path="url(#clip2_22_170)">
<path d="M240 71.8L243.799 75L252 67" stroke="white" stroke-width="2" stroke-linecap="round" stroke-linejoin="round"/>
</g>
<g clip-path="url(#clip3_22_170)">
<path d="M240 124.8L243.799 128L252 120" stroke="white" stroke-width="2" stroke-linecap="round" stroke-linejoin="round"/>
</g>
<g clip-path="url(#clip4_22_170)">
<path d="M299 71.8L302.799 75L311 67" stroke="white" stroke-width="2" stroke-linecap="round" stroke-linejoin="round"/>
</g>
<g clip-path="url(#clip5_22_170)">
<g clip-path="url(#clip6_22_170)">
<path d="M299 124.8L302.799 128L311 120" stroke="white" stroke-width="2" stroke-linecap="round" stroke-linejoin="round"/>
</g>
</g>
</g>
<path d="M127.023 158.92C128.469 157.792 130.498 157.792 131.944 158.92L135.336 161.567C135.907 162.012 136.588 162.295 137.307 162.383L141.577 162.91C143.398 163.135 144.832 164.569 145.057 166.39L145.584 170.66C145.672 171.379 145.955 172.06 146.4 172.631L149.047 176.023C150.175 177.469 150.175 179.498 149.047 180.944L146.4 184.336C145.955 184.907 145.672 185.588 145.584 186.307L145.057 190.577C144.832 192.398 143.398 193.832 141.577 194.057L137.307 194.584C136.588 194.672 135.907 194.955 135.336 195.4L131.944 198.047C130.498 199.175 128.469 199.175 127.023 198.047L123.631 195.4C123.06 194.955 122.379 194.672 121.66 194.584L117.39 194.057C115.569 193.832 114.135 192.398 113.91 190.577L113.383 186.307C113.295 185.588 113.012 184.907 112.567 184.336L109.92 180.944C108.792 179.498 108.792 177.469 109.92 176.023L112.567 172.631C113.012 172.06 113.295 171.379 113.383 170.66L113.91 166.39C114.135 164.569 115.569 163.135 117.39 162.91L121.66 162.383C122.379 162.295 123.06 162.012 123.631 161.567L127.023 158.92Z" fill="url(#paint11_linear_22_170)"/>
<path d="M123 178.863L126.8 182.063L135 174.063" stroke="white" stroke-width="2" stroke-linecap="round" stroke-linejoin="round"/>
<path d="M186.023 158.92C187.469 157.792 189.498 157.792 190.944 158.92L194.336 161.567C194.907 162.012 195.588 162.295 196.307 162.383L200.577 162.91C202.398 163.135 203.832 164.569 204.057 166.39L204.584 170.66C204.672 171.379 204.955 172.06 205.4 172.631L208.047 176.023C209.175 177.469 209.175 179.498 208.047 180.944L205.4 184.336C204.955 184.907 204.672 185.588 204.584 186.307L204.057 190.577C203.832 192.398 202.398 193.832 200.577 194.057L196.307 194.584C195.588 194.672 194.907 194.955 194.336 195.4L190.944 198.047C189.498 199.175 187.469 199.175 186.023 198.047L182.631 195.4C182.06 194.955 181.379 194.672 180.66 194.584L176.39 194.057C174.569 193.832 173.135 192.398 172.91 190.577L172.383 186.307C172.295 185.588 172.012 184.907 171.567 184.336L168.92 180.944C167.792 179.498 167.792 177.469 168.92 176.023L171.567 172.631C172.012 172.06 172.295 171.379 172.383 170.66L172.91 166.39C173.135 164.569 174.569 163.135 176.39 162.91L180.66 162.383C181.379 162.295 182.06 162.012 182.631 161.567L186.023 158.92Z" fill="url(#paint12_linear_22_170)"/>
<path d="M182 178.863L185.8 182.063L194 174.063" stroke="white" stroke-width="2" stroke-linecap="round" stroke-linejoin="round"/>
<path d="M244.023 158.92C245.469 157.792 247.498 157.792 248.944 158.92L252.336 161.567C252.907 162.012 253.588 162.295 254.307 162.383L258.577 162.91C260.398 163.135 261.832 164.569 262.057 166.39L262.584 170.66C262.672 171.379 262.955 172.06 263.4 172.631L266.047 176.023C267.175 177.469 267.175 179.498 266.047 180.944L263.4 184.336C262.955 184.907 262.672 185.588 262.584 186.307L262.057 190.577C261.832 192.398 260.398 193.832 258.577 194.057L254.307 194.584C253.588 194.672 252.907 194.955 252.336 195.4L248.944 198.047C247.498 199.175 245.469 199.175 244.023 198.047L240.631 195.4C240.06 194.955 239.379 194.672 238.66 194.584L234.39 194.057C232.569 193.832 231.135 192.398 230.91 190.577L230.383 186.307C230.295 185.588 230.012 184.907 229.567 184.336L226.92 180.944C225.792 179.498 225.792 177.469 226.92 176.023L229.567 172.631C230.012 172.06 230.295 171.379 230.383 170.66L230.91 166.39C231.135 164.569 232.569 163.135 234.39 162.91L238.66 162.383C239.379 162.295 240.06 162.012 240.631 161.567L244.023 158.92Z" fill="url(#paint13_linear_22_170)"/>
<path d="M240 178.863L243.8 182.063L252 174.063" stroke="white" stroke-width="2" stroke-linecap="round" stroke-linejoin="round"/>
<path d="M303.023 158.92C304.469 157.792 306.498 157.792 307.944 158.92L311.336 161.567C311.907 162.012 312.588 162.295 313.307 162.383L317.577 162.91C319.398 163.135 320.832 164.569 321.057 166.39L321.584 170.66C321.672 171.379 321.955 172.06 322.4 172.631L325.047 176.023C326.175 177.469 326.175 179.498 325.047 180.944L322.4 184.336C321.955 184.907 321.672 185.588 321.584 186.307L321.057 190.577C320.832 192.398 319.398 193.832 317.577 194.057L313.307 194.584C312.588 194.672 311.907 194.955 311.336 195.4L307.944 198.047C306.498 199.175 304.469 199.175 303.023 198.047L299.631 195.4C299.06 194.955 298.379 194.672 297.66 194.584L293.39 194.057C291.569 193.832 290.135 192.398 289.91 190.577L289.383 186.307C289.295 185.588 289.012 184.907 288.567 184.336L285.92 180.944C284.792 179.498 284.792 177.469 285.92 176.023L288.567 172.631C289.012 172.06 289.295 171.379 289.383 170.66L289.91 166.39C290.135 164.569 291.569 163.135 293.39 162.91L297.66 162.383C298.379 162.295 299.06 162.012 299.631 161.567L303.023 158.92Z" fill="url(#paint14_linear_22_170)"/>
<path d="M299 178.863L302.8 182.063L311 174.063" stroke="white" stroke-width="2" stroke-linecap="round" stroke-linejoin="round"/>
</g>
<defs>
<filter id="filter0_d_22_170" x="-16" y="-12" width="407" height="279" filterUnits="userSpaceOnUse" color-interpolation-filters="sRGB">
<feFlood flood-opacity="0" result="BackgroundImageFix"/>
<feColorMatrix in="SourceAlpha" type="matrix" values="0 0 0 0 0 0 0 0 0 0 0 0 0 0 0 0 0 0 127 0" result="hardAlpha"/>
<feOffset dy="4"/>
<feGaussianBlur stdDeviation="8"/>
<feComposite in2="hardAlpha" operator="out"/>
<feColorMatrix type="matrix" values="0 0 0 0 0 0 0 0 0 0 0 0 0 0 0 0 0 0 0.25 0"/>
<feBlend mode="normal" in2="BackgroundImageFix" result="effect1_dropShadow_22_170"/>
<feBlend mode="normal" in="SourceGraphic" in2="effect1_dropShadow_22_170" result="shape"/>
</filter>
<filter id="filter1_d_22_170" x="25" y="24" width="325" height="207" filterUnits="userSpaceOnUse" color-interpolation-filters="sRGB">
<feFlood flood-opacity="0" result="BackgroundImageFix"/>
<feColorMatrix in="SourceAlpha" type="matrix" values="0 0 0 0 0 0 0 0 0 0 0 0 0 0 0 0 0 0 127 0" result="hardAlpha"/>
<feOffset dy="4"/>
<feGaussianBlur stdDeviation="2"/>
<feComposite in2="hardAlpha" operator="out"/>
<feColorMatrix type="matrix" values="0 0 0 0 0 0 0 0 0 0 0 0 0 0 0 0 0 0 0.25 0"/>
<feBlend mode="normal" in2="BackgroundImageFix" result="effect1_dropShadow_22_170"/>
<feBlend mode="normal" in="SourceGraphic" in2="effect1_dropShadow_22_170" result="shape"/>
</filter>
<filter id="filter2_d_22_170" x="14" y="13" width="347" height="229" filterUnits="userSpaceOnUse" color-interpolation-filters="sRGB">
<feFlood flood-opacity="0" result="BackgroundImageFix"/>
<feColorMatrix in="SourceAlpha" type="matrix" values="0 0 0 0 0 0 0 0 0 0 0 0 0 0 0 0 0 0 127 0" result="hardAlpha"/>
<feOffset dy="4"/>
<feGaussianBlur stdDeviation="7.5"/>
<feComposite in2="hardAlpha" operator="out"/>
<feColorMatrix type="matrix" values="0 0 0 0 0 0 0 0 0 0 0 0 0 0 0 0 0 0 0.1 0"/>
<feBlend mode="normal" in2="BackgroundImageFix" result="effect1_dropShadow_22_170"/>
<feBlend mode="normal" in="SourceGraphic" in2="effect1_dropShadow_22_170" result="shape"/>
</filter>
<linearGradient id="paint0_linear_22_170" x1="126.508" y1="115" x2="181.008" y2="83.5" gradientUnits="userSpaceOnUse">
<stop stop-color="#FAA677"/>
<stop offset="1" stop-color="#FAA677" stop-opacity="0.47"/>
</linearGradient>
<linearGradient id="paint1_linear_22_170" x1="185.016" y1="115" x2="239.516" y2="83.5001" gradientUnits="userSpaceOnUse">
<stop stop-color="#FAA677"/>
<stop offset="1" stop-color="#FAA677" stop-opacity="0.47"/>
</linearGradient>
<linearGradient id="paint2_linear_22_170" x1="243.525" y1="115" x2="298.025" y2="83.5" gradientUnits="userSpaceOnUse">
<stop stop-color="#FAA677"/>
<stop offset="1" stop-color="#FAA677" stop-opacity="0.47"/>
</linearGradient>
<linearGradient id="paint3_linear_22_170" x1="302.033" y1="115" x2="356.533" y2="83.5001" gradientUnits="userSpaceOnUse">
<stop stop-color="#FAA677"/>
<stop offset="1" stop-color="#FAA677" stop-opacity="0.47"/>
</linearGradient>
<linearGradient id="paint4_linear_22_170" x1="67.9997" y1="168.937" x2="122.5" y2="137.437" gradientUnits="userSpaceOnUse">
<stop stop-color="#FAA677"/>
<stop offset="1" stop-color="#FAA677" stop-opacity="0.47"/>
</linearGradient>
<linearGradient id="paint5_linear_22_170" x1="126.508" y1="168.937" x2="181.008" y2="137.437" gradientUnits="userSpaceOnUse">
<stop stop-color="#FAA677"/>
<stop offset="1" stop-color="#FAA677" stop-opacity="0.47"/>
</linearGradient>
<linearGradient id="paint6_linear_22_170" x1="185.017" y1="168.937" x2="239.517" y2="137.437" gradientUnits="userSpaceOnUse">
<stop stop-color="#FAA677"/>
<stop offset="1" stop-color="#FAA677" stop-opacity="0.47"/>
</linearGradient>
<linearGradient id="paint7_linear_22_170" x1="243.524" y1="168.937" x2="298.024" y2="137.437" gradientUnits="userSpaceOnUse">
<stop stop-color="#FAA677"/>
<stop offset="1" stop-color="#FAA677" stop-opacity="0.47"/>
</linearGradient>
<linearGradient id="paint8_linear_22_170" x1="302.033" y1="168.937" x2="356.533" y2="137.437" gradientUnits="userSpaceOnUse">
<stop stop-color="#FAA677"/>
<stop offset="1" stop-color="#FAA677" stop-opacity="0.47"/>
</linearGradient>
<linearGradient id="paint9_linear_22_170" x1="67.9997" y1="115" x2="122.5" y2="83.5" gradientUnits="userSpaceOnUse">
<stop stop-color="#FAA677"/>
<stop offset="1" stop-color="#FAA677" stop-opacity="0.47"/>
</linearGradient>
<linearGradient id="paint10_linear_22_170" x1="67.9997" y1="223" x2="122.5" y2="191.5" gradientUnits="userSpaceOnUse">
<stop stop-color="#FAA677"/>
<stop offset="1" stop-color="#FAA677" stop-opacity="0.47"/>
</linearGradient>
<linearGradient id="paint11_linear_22_170" x1="127" y1="223" x2="181.5" y2="191.5" gradientUnits="userSpaceOnUse">
<stop stop-color="#FAA677"/>
<stop offset="1" stop-color="#FAA677" stop-opacity="0.47"/>
</linearGradient>
<linearGradient id="paint12_linear_22_170" x1="186" y1="223" x2="240.5" y2="191.5" gradientUnits="userSpaceOnUse">
<stop stop-color="#FAA677"/>
<stop offset="1" stop-color="#FAA677" stop-opacity="0.47"/>
</linearGradient>
<linearGradient id="paint13_linear_22_170" x1="244" y1="223" x2="298.5" y2="191.5" gradientUnits="userSpaceOnUse">
<stop stop-color="#FAA677"/>
<stop offset="1" stop-color="#FAA677" stop-opacity="0.47"/>
</linearGradient>
<linearGradient id="paint14_linear_22_170" x1="303" y1="223" x2="357.5" y2="191.5" gradientUnits="userSpaceOnUse">
<stop stop-color="#FAA677"/>
<stop offset="1" stop-color="#FAA677" stop-opacity="0.47"/>
</linearGradient>
<clipPath id="clip0_22_170">
<rect width="22" height="22" fill="white" transform="translate(177 61)"/>
</clipPath>
<clipPath id="clip1_22_170">
<rect width="22" height="22" fill="white" transform="translate(177 114)"/>
</clipPath>
<clipPath id="clip2_22_170">
<rect width="22" height="22" fill="white" transform="translate(235 61)"/>
</clipPath>
<clipPath id="clip3_22_170">
<rect width="22" height="22" fill="white" transform="translate(235 114)"/>
</clipPath>
<clipPath id="clip4_22_170">
<rect width="22" height="22" fill="white" transform="translate(294 61)"/>
</clipPath>
<clipPath id="clip5_22_170">
<rect width="22" height="22" fill="white" transform="translate(294 114)"/>
</clipPath>
<clipPath id="clip6_22_170">
<rect width="22" height="22" fill="white" transform="translate(294 114)"/>
</clipPath>
</defs>
</svg>
