<svg width="43" height="43" viewBox="0 0 43 43" fill="none" xmlns="http://www.w3.org/2000/svg">
<path d="M19.0227 1.92016C20.4691 0.79153 22.4979 0.791529 23.9442 1.92016L27.3361 4.56687C27.907 5.01238 28.5882 5.29454 29.3069 5.38323L33.5768 5.91012C35.3976 6.1348 36.8322 7.56933 37.0569 9.39014L37.5837 13.66C37.6724 14.3788 37.9546 15.06 38.4001 15.6309L41.0468 19.0227C42.1754 20.4691 42.1754 22.4979 41.0468 23.9442L38.4001 27.3361C37.9546 27.907 37.6724 28.5882 37.5837 29.3069L37.0569 33.5768C36.8322 35.3976 35.3976 36.8322 33.5768 37.0569L29.3069 37.5837C28.5882 37.6724 27.907 37.9546 27.3361 38.4001L23.9442 41.0468C22.4979 42.1754 20.4691 42.1754 19.0227 41.0468L15.6309 38.4001C15.06 37.9546 14.3788 37.6724 13.66 37.5837L9.39014 37.0569C7.56933 36.8322 6.1348 35.3976 5.91012 33.5768L5.38323 29.3069C5.29454 28.5882 5.01238 27.907 4.56687 27.3361L1.92016 23.9442C0.79153 22.4979 0.791529 20.4691 1.92016 19.0227L4.56687 15.6309C5.01238 15.06 5.29454 14.3788 5.38323 13.66L5.91012 9.39014C6.1348 7.56933 7.56933 6.1348 9.39014 5.91012L13.66 5.38323C14.3788 5.29454 15.06 5.01238 15.6309 4.56687L19.0227 1.92016Z" fill="url(#paint0_linear_22_232)"/>
<path d="M15.0002 21.863L18.7995 25.063L27.0002 17.063" stroke="white" stroke-width="2" stroke-linecap="round" stroke-linejoin="round"/>
<defs>
<linearGradient id="paint0_linear_22_232" x1="19" y1="66" x2="73.5" y2="34.5" gradientUnits="userSpaceOnUse">
<stop stop-color="#FAA677"/>
<stop offset="1" stop-color="#FAA677" stop-opacity="0.47"/>
</linearGradient>
</defs>
</svg>
